<svg width="556" height="280" viewBox="0 0 556 280" fill="none" xmlns="http://www.w3.org/2000/svg">
<g clip-path="url(#clip0_8015_37160)">
<rect width="556" height="280" rx="12" fill="#F5F5F5"/>
<g filter="url(#filter0_ddd_8015_37160)">
<g clip-path="url(#clip1_8015_37160)">
<g filter="url(#filter1_i_8015_37160)">
<g clip-path="url(#clip2_8015_37160)">
<mask id="path-6-inside-1_8015_37160" fill="white">
<path d="M0 0.420898H556V44.4941H0V0.420898Z"/>
</mask>
<path d="M0 0.420898H556V44.4941H0V0.420898Z" fill="white"/>
<rect width="556" height="23.7317" transform="translate(0 0.420898)" fill="#DFE1E6"/>
<circle cx="14.691" cy="12.2867" r="3.39024" fill="#F46B5D"/>
<circle cx="14.691" cy="12.2867" r="3.24898" stroke="black" stroke-opacity="0.15" stroke-width="0.28252"/>
<circle cx="25.9919" cy="12.2867" r="3.39024" fill="#F9BD4E"/>
<circle cx="25.9919" cy="12.2867" r="3.24898" stroke="black" stroke-opacity="0.15" stroke-width="0.28252"/>
<circle cx="37.2926" cy="12.2867" r="3.39024" fill="#57C353"/>
<circle cx="37.2926" cy="12.2867" r="3.24898" stroke="black" stroke-opacity="0.15" stroke-width="0.28252"/>
<path d="M193.244 24.1528H48.5935C51.1362 24.1528 53.1138 21.7247 53.1138 19.0831V9.74425C53.1138 7.10269 55.148 4.94141 57.6342 4.94141H184.203C186.689 4.94141 188.724 5.90197 188.724 8.54354V19.3499C188.724 21.9915 190.758 24.1528 193.244 24.1528Z" fill="white"/>
<path d="M60.5023 17.0269L59.4785 12.0364H60.2921L60.76 14.6333L61.0244 16.2335H61.0515C61.16 15.6979 61.2753 15.1622 61.3906 14.6333L62.0347 12.0364H62.7263L63.3772 14.6333C63.4925 15.1554 63.601 15.6911 63.7163 16.2335H63.7502C63.8315 15.6911 63.9197 15.1554 64.001 14.6333L64.4757 12.0364H65.2283L64.2451 17.0269H63.2755L62.6043 14.2536C62.5161 13.8604 62.4415 13.4874 62.3737 13.1077H62.3398C62.272 13.4874 62.1906 13.8604 62.1093 14.2536L61.4516 17.0269H60.5023ZM66.0457 17.0269V12.0364H67.5578C68.6698 12.0364 69.4631 12.4161 69.4631 13.5417C69.4631 14.6333 68.6698 15.1351 67.5849 15.1351H66.8323V17.0269H66.0457ZM66.8323 14.5045H67.5103C68.3104 14.5045 68.6901 14.1994 68.6901 13.5417C68.6901 12.884 68.2765 12.667 67.4832 12.667H66.8323V14.5045ZM71.7869 17.115C71.1021 17.115 70.4647 16.8438 70.0104 16.3827L70.4715 15.8403C70.8308 16.1996 71.319 16.4302 71.8005 16.4302C72.4039 16.4302 72.7429 16.1454 72.7429 15.725C72.7429 15.2707 72.4039 15.1283 71.9428 14.9249L71.2512 14.6266C70.7698 14.4231 70.2342 14.0434 70.2342 13.3179C70.2342 12.5314 70.9258 11.9415 71.875 11.9415C72.4582 11.9415 73.0074 12.1856 73.3871 12.5721L72.9735 13.0738C72.6616 12.7958 72.3158 12.6263 71.875 12.6263C71.3665 12.6263 71.0343 12.8704 71.0343 13.2705C71.0343 13.6976 71.4343 13.8604 71.8411 14.0231L72.526 14.3147C73.1159 14.5655 73.543 14.9317 73.543 15.664C73.543 16.4641 72.8785 17.115 71.7869 17.115ZM76.0112 17.0269V12.0364H77.5232C78.6352 12.0364 79.4286 12.4161 79.4286 13.5417C79.4286 14.6333 78.6352 15.1351 77.5504 15.1351H76.7977V17.0269H76.0112ZM76.7977 14.5045H77.4758C78.2759 14.5045 78.6556 14.1994 78.6556 13.5417C78.6556 12.884 78.242 12.667 77.4487 12.667H76.7977V14.5045ZM80.4013 17.0269V12.0364H81.6964C83.2287 12.0364 84.1034 12.884 84.1034 14.5113C84.1034 16.1318 83.2287 17.0269 81.737 17.0269H80.4013ZM81.1878 16.3827H81.6421C82.7134 16.3827 83.2898 15.7521 83.2898 14.5113C83.2898 13.2637 82.7134 12.6738 81.6421 12.6738H81.1878V16.3827ZM85.1423 17.0269V12.0364H88.0986V12.6941H85.9289V14.2197H87.7732V14.8774H85.9289V17.0269H85.1423Z" fill="#3D4043"/>
<path d="M176.971 16.6969C177.019 16.7453 177.077 16.7773 177.145 16.7928C177.215 16.8103 177.283 16.8103 177.349 16.7928C177.416 16.7773 177.474 16.7463 177.52 16.6998L179.118 15.101L180.713 16.6998C180.786 16.7734 180.877 16.8093 180.986 16.8074C181.096 16.8074 181.189 16.7696 181.265 16.694C181.34 16.6184 181.378 16.5264 181.378 16.4178C181.378 16.3093 181.341 16.2182 181.268 16.1446L179.673 14.5458L181.268 12.9499C181.341 12.8782 181.378 12.7872 181.378 12.6767C181.378 12.5662 181.34 12.4742 181.265 12.4006C181.189 12.325 181.096 12.2872 180.986 12.2872C180.877 12.2852 180.786 12.3211 180.713 12.3947L179.118 13.9935L177.52 12.3947C177.474 12.3482 177.416 12.3172 177.349 12.3017C177.283 12.2843 177.215 12.2833 177.145 12.2988C177.077 12.3143 177.019 12.3473 176.971 12.3976C176.921 12.45 176.887 12.51 176.869 12.5779C176.854 12.6438 176.854 12.7106 176.869 12.7784C176.887 12.8463 176.919 12.9034 176.965 12.9499L178.563 14.5458L176.965 16.1446C176.919 16.193 176.887 16.2512 176.869 16.319C176.854 16.3849 176.854 16.4518 176.869 16.5196C176.887 16.5874 176.921 16.6465 176.971 16.6969Z" fill="#3D4043"/>
<path d="M197.764 14.547C197.764 14.7038 197.82 14.8383 197.932 14.9503C198.044 15.0595 198.177 15.1141 198.331 15.1141H200.592V17.3743C200.592 17.5283 200.646 17.66 200.755 17.7692C200.867 17.8812 201 17.9372 201.154 17.9372C201.311 17.9372 201.444 17.8812 201.554 17.7692C201.666 17.66 201.722 17.5283 201.722 17.3743V15.1141H203.982C204.136 15.1141 204.267 15.0595 204.377 14.9503C204.489 14.8383 204.545 14.7038 204.545 14.547C204.545 14.3929 204.489 14.2599 204.377 14.1479C204.267 14.0359 204.136 13.9798 203.982 13.9798H201.722V11.7239C201.722 11.5698 201.666 11.4368 201.554 11.3248C201.444 11.2128 201.311 11.1567 201.154 11.1567C201 11.1567 200.867 11.2128 200.755 11.3248C200.646 11.4368 200.592 11.5698 200.592 11.7239V13.9798H198.331C198.177 13.9798 198.044 14.0359 197.932 14.1479C197.82 14.2599 197.764 14.3929 197.764 14.547Z" fill="#3D4043"/>
<rect width="556" height="20.3415" transform="translate(0 24.1528)" fill="white"/>
<path d="M16.0765 34.2022C16.3365 34.2022 16.5474 34.413 16.5474 34.6731L-nan -nanL16.5474 34.6731C16.5474 34.9331 16.3365 35.1439 16.0765 35.1439H10.897L13.1524 37.3994C13.337 37.584 13.337 37.8834 13.1524 38.068L-nan -nanL13.1524 38.068C12.9678 38.2527 12.6684 38.2527 12.4838 38.068L9.48837 35.0726C9.26771 34.852 9.26771 34.4942 9.48837 34.2735L12.4838 31.2781C12.6684 31.0935 12.9678 31.0935 13.1524 31.2781L-nan -nanL13.1524 31.2781C13.337 31.4628 13.337 31.7621 13.1524 31.9468L10.897 34.2022H16.0765Z" fill="#606368"/>
<path d="M27.5657 34.2022C27.3057 34.2022 27.0948 34.413 27.0948 34.6731L-nan -nanL27.0948 34.6731C27.0948 34.9331 27.3057 35.1439 27.5657 35.1439H32.7453L30.4898 37.3994C30.3052 37.584 30.3052 37.8834 30.4898 38.068L-nan -nanL30.4898 38.068C30.6744 38.2527 30.9738 38.2527 31.1584 38.068L34.1538 35.0726C34.3745 34.852 34.3745 34.4942 34.1538 34.2735L31.1584 31.2781C30.9738 31.0935 30.6744 31.0935 30.4898 31.2781L-nan -nanL30.4898 31.2781C30.3052 31.4628 30.3052 31.7621 30.4898 31.9468L32.7453 34.2022H27.5657Z" fill="#BABCBE"/>
<path d="M51.2539 31.6632C50.5712 30.9804 49.6342 30.5566 48.5935 30.5566C47.5945 30.5566 46.6363 30.9535 45.9299 31.66C45.2235 32.3664 44.8266 33.3245 44.8266 34.3236C44.8266 35.3226 45.2235 36.2808 45.9299 36.9872C46.6363 37.6936 47.5945 38.0905 48.5935 38.0905C50.127 38.0905 51.4379 37.1752 52.0249 35.8616C52.1555 35.5692 51.9212 35.2653 51.6009 35.2653L-nan -nanL51.6009 35.2653C51.393 35.2653 51.2115 35.3986 51.1188 35.5847C50.6569 36.5119 49.6996 37.1488 48.5935 37.1488C47.8442 37.1488 47.1256 36.8511 46.5958 36.3213C46.066 35.7915 45.7683 35.0729 45.7683 34.3236C45.7683 33.5743 46.066 32.8557 46.5958 32.3259C47.1256 31.796 47.8442 31.4984 48.5935 31.4984C49.3752 31.4984 50.0721 31.8233 50.5806 32.3365L49.0644 33.8527H52.3605V30.5566L51.2539 31.6632Z" fill="#606368"/>
<rect x="61.0244" y="26.4131" width="435.081" height="15.8211" rx="7.91057" fill="#F1F3F4"/>
<path d="M74.0202 33.4762C74.1701 33.4762 74.3138 33.5357 74.4198 33.6417C74.5257 33.7476 74.5853 33.8914 74.5853 34.0412V36.8664C74.5853 37.0163 74.5257 37.16 74.4198 37.266C74.3138 37.3719 74.1701 37.4315 74.0202 37.4315H70.63C70.4801 37.4315 70.3364 37.3719 70.2304 37.266C70.1245 37.16 70.0649 37.0163 70.0649 36.8664V34.0412C70.0649 33.7276 70.3192 33.4762 70.63 33.4762H70.9125V32.9111C70.9125 32.5365 71.0613 32.1772 71.3262 31.9123C71.5912 31.6474 71.9505 31.4985 72.3251 31.4985C72.5106 31.4985 72.6943 31.5351 72.8657 31.6061C73.0371 31.6771 73.1928 31.7811 73.324 31.9123C73.4551 32.0434 73.5592 32.1992 73.6302 32.3706C73.7012 32.5419 73.7377 32.7256 73.7377 32.9111V33.4762H74.0202ZM72.3251 32.0636C72.1003 32.0636 71.8847 32.1529 71.7258 32.3118C71.5668 32.4708 71.4775 32.6863 71.4775 32.9111V33.4762H73.1727V32.9111C73.1727 32.6863 73.0834 32.4708 72.9244 32.3118C72.7655 32.1529 72.5499 32.0636 72.3251 32.0636Z" fill="#606368"/>
<rect x="81.3658" y="30.0859" width="71.1951" height="8.47561" rx="4.2378" fill="#FDFDFD"/>
<g clip-path="url(#clip3_8015_37160)">
<path d="M467.026 38.18H470.939C471.312 38.18 471.595 38.0843 471.786 37.893C471.977 37.7017 472.073 37.4232 472.073 37.0573V33.7361C472.073 33.3678 471.977 33.0893 471.786 32.9004C471.595 32.7091 471.312 32.6134 470.939 32.6134H470.032V33.3308H470.886C471.036 33.3308 471.152 33.3702 471.233 33.4491C471.315 33.5256 471.355 33.644 471.355 33.8042V36.9856C471.355 37.1434 471.315 37.2618 471.233 37.3407C471.152 37.4196 471.036 37.459 470.886 37.459H467.08C466.929 37.459 466.813 37.4196 466.732 37.3407C466.653 37.2618 466.614 37.1434 466.614 36.9856V33.8042C466.614 33.644 466.653 33.5256 466.732 33.4491C466.813 33.3702 466.929 33.3308 467.08 33.3308H467.944V32.6134H467.026C466.656 32.6134 466.373 32.7079 466.18 32.8968C465.989 33.0857 465.893 33.3654 465.893 33.7361V37.0573C465.893 37.4232 465.989 37.7017 466.18 37.893C466.373 38.0843 466.656 38.18 467.026 38.18ZM468.985 35.4541C469.075 35.4541 469.153 35.4218 469.218 35.3572C469.285 35.2903 469.318 35.2138 469.318 35.1277V31.7347L469.289 31.2326L469.49 31.4872L469.949 31.975C470.009 32.0396 470.083 32.0718 470.172 32.0718C470.253 32.0718 470.322 32.0455 470.38 31.9929C470.437 31.9379 470.466 31.8698 470.466 31.7885C470.466 31.7096 470.436 31.639 470.376 31.5769L469.239 30.4829C469.196 30.4399 469.153 30.41 469.11 30.3933C469.069 30.3765 469.028 30.3682 468.985 30.3682C468.939 30.3682 468.895 30.3765 468.852 30.3933C468.811 30.41 468.769 30.4399 468.726 30.4829L467.593 31.5769C467.531 31.639 467.5 31.7096 467.5 31.7885C467.5 31.8698 467.528 31.9379 467.586 31.9929C467.643 32.0455 467.711 32.0718 467.79 32.0718C467.881 32.0718 467.956 32.0396 468.016 31.975L468.475 31.4872L468.676 31.2326L468.647 31.7347V35.1277C468.647 35.2138 468.68 35.2903 468.744 35.3572C468.811 35.4218 468.891 35.4541 468.985 35.4541Z" fill="#606368"/>
</g>
<g clip-path="url(#clip4_8015_37160)">
<path d="M484.805 35.7604L483.211 36.7223L483.593 35.0742C483.616 34.9723 483.582 34.8657 483.503 34.7971L482.224 33.6881L483.91 33.5456C484.015 33.5368 484.106 33.4708 484.147 33.3742L484.805 31.8192L485.463 33.3742C485.504 33.4708 485.595 33.5368 485.699 33.5456L487.386 33.6881L486.107 34.7971C486.028 34.8657 485.993 34.9723 486.017 35.0742L486.398 36.7223M488.537 33.5925C488.725 33.4289 488.624 33.1186 488.375 33.0975L486.165 32.91C486.061 32.9011 485.97 32.8352 485.929 32.7387L485.065 30.6997C484.968 30.47 484.642 30.47 484.545 30.6997L483.68 32.7387C483.64 32.8352 483.549 32.9011 483.444 32.91L481.233 33.0976C480.984 33.1187 480.883 33.4287 481.072 33.5925L482.748 35.0471C482.827 35.1157 482.862 35.2223 482.838 35.3243L482.337 37.4867C482.28 37.73 482.544 37.9215 482.758 37.7924L484.659 36.6452C484.749 36.591 484.861 36.591 484.951 36.6452L486.851 37.7918C487.065 37.9209 487.328 37.7291 487.272 37.4857L486.768 35.3247C486.744 35.2225 486.778 35.1156 486.858 35.0469L488.537 33.5925Z" fill="#606368"/>
</g>
<path d="M510.514 31.4985C511.138 31.4985 511.644 32.0044 511.644 32.6284V33.8999H512.35C512.896 33.8999 513.339 34.3422 513.339 34.8882C513.339 35.4343 512.896 35.8774 512.35 35.8774H511.644V37.1489C511.644 37.7729 511.138 38.2788 510.514 38.2788H509.243V37.5728C509.243 37.0268 508.8 36.5837 508.254 36.5835C507.708 36.5835 507.265 37.0266 507.265 37.5728V38.2788H505.994C505.37 38.2787 504.864 37.7729 504.864 37.1489V35.8774H505.57C506.116 35.8774 506.559 35.435 506.559 34.8892C506.559 34.343 506.116 33.8999 505.57 33.8999H504.864V32.6284C504.864 32.0045 505.37 31.4986 505.994 31.4985H507.265V30.7925C507.265 30.2464 507.708 29.8032 508.254 29.8032C508.8 29.8034 509.243 30.2465 509.243 30.7925V31.4985H510.514Z" fill="#606367"/>
<path fill-rule="evenodd" clip-rule="evenodd" d="M527.533 31.8483H523.577V37.4987H527.533V31.8483ZM522.447 30.7183V38.6288H530.358V30.7183H522.447Z" fill="#606368"/>
<path d="M543.919 36.5567C544.169 36.5567 544.408 36.6559 544.585 36.8325C544.761 37.0091 544.861 37.2486 544.861 37.4984C544.861 37.7482 544.761 37.9877 544.585 38.1643C544.408 38.3409 544.169 38.4401 543.919 38.4401C543.669 38.4401 543.429 38.3409 543.253 38.1643C543.076 37.9877 542.977 37.7482 542.977 37.4984C542.977 37.2486 543.076 37.0091 543.253 36.8325C543.429 36.6559 543.669 36.5567 543.919 36.5567ZM543.919 33.7315C544.169 33.7315 544.408 33.8307 544.585 34.0073C544.761 34.1839 544.861 34.4234 544.861 34.6732C544.861 34.923 544.761 35.1625 544.585 35.3391C544.408 35.5157 544.169 35.6149 543.919 35.6149C543.669 35.6149 543.429 35.5157 543.253 35.3391C543.076 35.1625 542.977 34.923 542.977 34.6732C542.977 34.4234 543.076 34.1839 543.253 34.0073C543.429 33.8307 543.669 33.7315 543.919 33.7315ZM543.919 30.9062C544.169 30.9062 544.408 31.0055 544.585 31.1821C544.761 31.3587 544.861 31.5982 544.861 31.848C544.861 32.0977 544.761 32.3373 544.585 32.5139C544.408 32.6905 544.169 32.7897 543.919 32.7897C543.669 32.7897 543.429 32.6905 543.253 32.5139C543.076 32.3373 542.977 32.0977 542.977 31.848C542.977 31.5982 543.076 31.3587 543.253 31.1821C543.429 31.0055 543.669 30.9062 543.919 30.9062Z" fill="#606368"/>
</g>
<path d="M556 44.4941V43.929H0V44.4941V45.0591H556V44.4941Z" fill="#F1F3F4" mask="url(#path-6-inside-1_8015_37160)"/>
</g>
<g clip-path="url(#clip5_8015_37160)">
<rect width="556" height="235" transform="translate(0 44.4941)" fill="white"/>
</g>
</g>
<rect x="-0.42378" y="-0.00288203" width="556.848" height="329.701" rx="13.9848" stroke="white" stroke-width="0.847561"/>
</g>
<g clip-path="url(#clip6_8015_37160)">
<rect x="52" y="124" width="364" height="140" rx="4" fill="#EAEFF5"/>
<rect x="52" y="124" width="364" height="23" fill="#DBE0E7"/>
<rect x="52" y="217" width="364" height="24" fill="white" fill-opacity="0.6"/>
<rect x="52" y="147" width="364" height="23" fill="white"/>
<rect x="52" y="170" width="364" height="23" fill="white" fill-opacity="0.6"/>
<rect x="52" y="193" width="364" height="24" fill="white"/>
<rect x="52" y="241" width="364" height="23" fill="white"/>
<path d="M121 147V264" stroke="#C2CCDA" stroke-width="0.5"/>
<path d="M174 147V264" stroke="#C2CCDA" stroke-width="0.5"/>
<path d="M227 147V264" stroke="#C2CCDA" stroke-width="0.5"/>
<path d="M280 147V264" stroke="#C2CCDA" stroke-width="0.5"/>
<path d="M333 147V264" stroke="#C2CCDA" stroke-width="0.5"/>
<path d="M386 147V264" stroke="#C2CCDA" stroke-width="0.5"/>
</g>
<rect x="52.5" y="124.5" width="363" height="139" rx="3.5" stroke="#DBE0E7"/>
<path d="M51 62C51 60.8954 51.8954 60 53 60H414C415.105 60 416 60.8954 416 62V74C416 75.1046 415.105 76 414 76H53C51.8954 76 51 75.1046 51 74V62Z" fill="#EAEFF5"/>
<path d="M51 94C51 92.8954 51.8954 92 53 92H250C251.105 92 252 92.8954 252 94V106C252 107.105 251.105 108 250 108H53C51.8954 108 51 107.105 51 106V94Z" fill="#EAEFF5"/>
<rect x="378" y="130" width="32" height="32" rx="8" fill="#0D0D0D" fill-opacity="0.5"/>
<path d="M394.749 143.524C394.945 143.335 395.257 143.338 395.449 143.531L396.593 144.675C396.786 144.867 396.789 145.179 396.6 145.375L389.551 152.679C389.357 152.88 389.035 152.883 388.838 152.685L387.436 151.284C387.238 151.086 387.241 150.765 387.443 150.571L394.749 143.524Z" stroke="white" stroke-width="1.5"/>
<path d="M392.5 145.5L394.5 147.5" stroke="white" stroke-width="1.5"/>
<path d="M394.25 139V140.75" stroke="white" stroke-width="1.5" stroke-linecap="round"/>
<path d="M399.237 140.763L398 142" stroke="white" stroke-width="1.5" stroke-linecap="round"/>
<path d="M399.237 150.75L398 149.513" stroke="white" stroke-width="1.5" stroke-linecap="round"/>
<path d="M389.25 140.763L390.487 142" stroke="white" stroke-width="1.5" stroke-linecap="round"/>
<path d="M399.25 145.75H401" stroke="white" stroke-width="1.5" stroke-linecap="round"/>
<g filter="url(#filter2_d_8015_37160)">
<rect x="378" y="167" width="164" height="82.0889" rx="3.64444" fill="white"/>
<rect x="377.544" y="166.544" width="164.911" height="83" rx="4.1" stroke="#0D0D0D" stroke-opacity="0.12" stroke-width="0.911111"/>
<path d="M399.624 184.342C399.72 184.137 400.013 184.137 400.109 184.342L401.853 188.069L405.98 188.552C406.208 188.578 406.299 188.861 406.129 189.016L403.081 191.794L403.891 195.813C403.936 196.037 403.699 196.211 403.499 196.101L399.867 194.096L396.234 196.101C396.034 196.211 395.797 196.037 395.842 195.813L396.652 191.794L393.604 189.016C393.434 188.861 393.525 188.578 393.754 188.552L397.88 188.069L399.624 184.342Z" stroke="#333333" stroke-width="1.36667" stroke-linejoin="round"/>
<path d="M415.592 193.506L415.312 192.728C415.49 192.651 415.592 192.549 415.592 192.422V185.432H416.485V192.396C417.123 192.218 417.761 192.001 418.399 191.758V184.398H419.304V195.955H418.399V192.651C417.506 192.97 416.562 193.251 415.592 193.506ZM421.906 187.179C421.753 187.587 421.6 187.97 421.434 188.327C421.894 189.577 422.48 190.725 423.22 191.771C423.986 190.47 424.394 188.939 424.47 187.179H421.906ZM420.899 189.322C420.656 189.705 420.401 190.049 420.133 190.368L419.559 189.666C420.605 188.34 421.32 186.541 421.69 184.296L422.608 184.449C422.48 185.1 422.34 185.712 422.187 186.273H426.447V187.179H425.35C425.261 189.271 424.751 191.07 423.807 192.549C424.649 193.595 425.618 194.526 426.741 195.343L426.116 196.082C425.006 195.253 424.049 194.335 423.246 193.34C422.404 194.399 421.32 195.279 419.993 195.993L419.47 195.164C420.809 194.501 421.881 193.646 422.672 192.6C421.957 191.58 421.358 190.496 420.899 189.322ZM428.029 185.151H431.001V184.335H431.945V185.151H435.223V184.347H436.167V185.151H439.139V185.955H436.167V186.656H436.818V187.37H437.838C437.711 187.026 437.57 186.707 437.417 186.414L438.195 186.286C438.323 186.605 438.463 186.962 438.591 187.37H439.228V188.148H436.83C436.881 189.768 436.983 191.018 437.137 191.886C437.162 192.039 437.188 192.179 437.213 192.307C437.57 191.363 437.813 190.266 437.94 189.003L438.718 189.169C438.514 190.98 438.119 192.447 437.519 193.595C437.596 193.85 437.672 194.067 437.762 194.246C437.991 194.73 438.182 194.985 438.31 194.985C438.463 194.973 438.616 194.399 438.744 193.251L439.407 193.621C439.19 195.202 438.871 195.993 438.463 195.993C438.131 195.993 437.762 195.674 437.379 195.062C437.251 194.858 437.149 194.641 437.047 194.386C436.563 195.049 436.001 195.572 435.364 195.955L434.93 195.266L435.147 195.126H431.805V188.901H435.44V189.641H434.318V190.751H435.427V193.174H434.318V194.386H435.44V194.909C435.925 194.501 436.346 194.003 436.703 193.404C436.588 193.034 436.486 192.638 436.409 192.205C436.205 191.159 436.078 189.807 436.027 188.148H431.09V192.039C431.065 193.697 430.772 195.024 430.21 196.031L429.547 195.432C430.006 194.616 430.236 193.493 430.261 192.039V191.899H429.241C429.19 193.608 428.871 194.794 428.31 195.47L427.672 194.973C428.182 194.411 428.463 193.391 428.514 191.899H427.787V191.133H430.261V189.845H428.31V186.937H429.101V189.08H430.261V187.37H436.014V186.847H435.223V185.955H431.945V186.835H431.001V185.955H428.029V185.151ZM433.59 189.641H432.557V190.751H433.59V189.641ZM432.557 191.427V192.485H434.713V191.427H432.557ZM432.557 193.174V194.386H433.59V193.174H432.557ZM447.162 193.901V194.807C445.198 195.215 443.081 195.572 440.81 195.853L440.606 194.973C441.626 194.858 442.621 194.73 443.591 194.577V192.166H441.104V191.274H443.591V189.794H444.509V191.274H446.805V192.166H444.509V194.424C445.415 194.271 446.295 194.093 447.162 193.901ZM440.772 184.896H447.111V185.763H443.833C443.221 187.039 442.647 187.995 442.111 188.646C443.374 188.518 444.573 188.365 445.721 188.161C445.44 187.702 445.122 187.243 444.777 186.771L445.479 186.312C446.333 187.46 446.984 188.467 447.443 189.322L446.678 189.858C446.512 189.526 446.333 189.194 446.129 188.85C444.522 189.131 442.749 189.373 440.836 189.564L440.619 188.735C440.772 188.71 440.899 188.684 440.989 188.646C441.512 188.187 442.137 187.23 442.864 185.763H440.772V184.896ZM450.479 195.917H448.604L448.4 195.024C449.012 195.049 449.599 195.075 450.16 195.075C450.517 195.075 450.708 194.883 450.708 194.514V184.373H451.64V194.743C451.64 195.521 451.244 195.917 450.479 195.917ZM448.157 185.521H449.05V193.417H448.157V185.521ZM452.775 185.648H453.948L455.951 193.289H456.002L458.081 185.648H459.216L461.283 193.289H461.334L463.336 185.648H464.51L461.895 194.756H460.734L458.668 187.166H458.63L456.55 194.756H455.39L452.775 185.648ZM465.488 185.648H469.213C471.305 185.648 472.351 186.541 472.351 188.327C472.351 190.126 471.292 191.031 469.2 191.031H466.534V194.756H465.488V185.648ZM466.534 186.554V190.126H469.149C469.889 190.126 470.425 189.973 470.782 189.679C471.126 189.386 471.305 188.939 471.305 188.327C471.305 187.715 471.126 187.268 470.769 187C470.412 186.694 469.876 186.554 469.149 186.554H466.534ZM476.733 185.47C477.754 185.47 478.57 185.699 479.157 186.171C479.769 186.656 480.114 187.383 480.203 188.34H479.17C479.055 187.677 478.8 187.192 478.404 186.873C477.996 186.541 477.422 186.388 476.682 186.388C476.006 186.388 475.483 186.49 475.101 186.72C474.667 186.975 474.45 187.358 474.45 187.881C474.45 188.34 474.705 188.71 475.228 188.99C475.458 189.118 476.019 189.309 476.899 189.564C478.098 189.922 478.889 190.215 479.272 190.444C480.024 190.904 480.407 191.541 480.407 192.371C480.407 193.161 480.088 193.799 479.45 194.258C478.813 194.705 477.958 194.934 476.874 194.934C475.802 194.934 474.96 194.705 474.348 194.246C473.634 193.697 473.238 192.868 473.162 191.746H474.195C474.284 192.536 474.565 193.123 475.024 193.493C475.445 193.825 476.057 194.003 476.874 194.003C477.614 194.003 478.226 193.863 478.685 193.582C479.144 193.302 479.374 192.919 479.374 192.434C479.374 191.86 479.068 191.414 478.468 191.095C478.213 190.942 477.563 190.725 476.542 190.432C475.445 190.1 474.744 189.845 474.45 189.692C473.749 189.284 473.404 188.697 473.404 187.932C473.404 187.141 473.736 186.516 474.412 186.082C475.011 185.674 475.79 185.47 476.733 185.47Z" fill="#0D0D0D" fill-opacity="0.9"/>
<path d="M404.215 221.484L395.518 230.182M393.717 225.833C393.717 229.23 396.47 231.983 399.867 231.983C403.263 231.983 406.017 229.23 406.017 225.833C406.017 222.437 403.263 219.683 399.867 219.683C396.47 219.683 393.717 222.437 393.717 225.833Z" stroke="#333333" stroke-width="1.36667" stroke-linejoin="round"/>
<path d="M418.399 219.963C418.909 220.627 419.394 221.341 419.853 222.132L419.024 222.553C418.564 221.736 418.08 221.009 417.557 220.371L418.399 219.963ZM423.195 219.848L424.075 220.091C423.769 221.009 423.386 221.838 422.927 222.565H425.554V223.458H421.294V224.058C421.269 224.696 421.218 225.295 421.116 225.831H426.294V226.724H421.651C422.276 228.446 423.922 229.785 426.6 230.742L426.065 231.596C423.258 230.461 421.524 228.918 420.835 226.979C420.593 227.706 420.274 228.344 419.866 228.892C418.998 230.015 417.582 230.895 415.618 231.52L415.12 230.716C417.072 230.091 418.437 229.262 419.202 228.242C419.508 227.782 419.751 227.285 419.929 226.724H415.35V225.831H420.159C420.274 225.27 420.337 224.683 420.35 224.058V223.458H416.077V222.565H421.906C422.391 221.826 422.812 220.92 423.195 219.848ZM433.909 225.014H430.325V224.122H434.126V222.246H435.045V224.122H436.818V225.014H435.045V229.53C435.045 230.346 434.662 230.754 433.909 230.754H432.608L432.404 229.874C432.812 229.913 433.208 229.938 433.59 229.938C433.948 229.938 434.126 229.721 434.126 229.313V225.984C433.335 227.323 432.098 228.497 430.414 229.517L429.93 228.726C431.92 227.629 433.246 226.392 433.909 225.014ZM437.392 231.507H436.32L436.091 230.652L437.2 230.678C437.583 230.678 437.787 230.423 437.787 229.938V221.405H432.863V220.55H438.68V230.193C438.68 231.061 438.246 231.507 437.392 231.507ZM428.463 222.03H429.356V231.622H428.463V222.03ZM430.312 219.823C430.899 220.499 431.435 221.239 431.894 222.055L431.065 222.489C430.58 221.621 430.057 220.856 429.47 220.193L430.312 219.823ZM444.012 220.282H444.917V224.019H446.882V224.912H444.917V229.3C445.619 229.122 446.282 228.918 446.92 228.714V229.645C445.032 230.27 442.889 230.767 440.491 231.15L440.364 230.219C440.746 230.155 441.129 230.091 441.499 230.04V222.425H442.405V229.874C442.966 229.759 443.502 229.645 444.012 229.53V220.282ZM451.563 222.323L452.099 223.076C451.066 223.905 449.867 224.606 448.502 225.18V229.645C448.502 230.078 448.719 230.295 449.152 230.295H450.109C450.466 230.295 450.721 230.18 450.874 229.964C451.066 229.696 451.193 228.905 451.257 227.578L452.124 227.859C452.022 229.428 451.831 230.385 451.525 230.742C451.257 231.022 450.836 231.175 450.275 231.175H448.859C447.992 231.175 447.571 230.729 447.571 229.836V220.065H448.502V224.275C449.624 223.764 450.645 223.114 451.563 222.323ZM455.211 222.221H453.374V221.341H457.979V222.221H456.142V228.076C456.818 227.884 457.482 227.668 458.132 227.412V228.331C456.678 228.867 455.122 229.3 453.464 229.657L453.234 228.739C453.897 228.624 454.561 228.484 455.211 228.331V222.221ZM460.326 219.95H461.27V222.527H464.51C464.51 226.507 464.446 228.969 464.319 229.913C464.166 230.959 463.438 231.494 462.15 231.494C461.921 231.494 461.538 231.469 460.989 231.443L460.773 230.589C461.245 230.614 461.653 230.627 462.01 230.627C462.839 230.627 463.324 230.257 463.451 229.53C463.528 228.867 463.579 226.826 463.604 223.42H461.27C461.206 227.17 460.186 229.913 458.221 231.66L457.469 231.01C459.331 229.428 460.275 226.889 460.326 223.42H458.298V222.527H460.326V219.95ZM467.75 227.234V228.42H470.696V227.234H467.75ZM470.696 226.469V225.231H467.75V226.469H470.696ZM467.75 229.198V231.635H466.87V224.428H471.577V230.423C471.577 231.163 471.219 231.545 470.505 231.545H469.485L469.255 230.678L470.212 230.716C470.531 230.716 470.696 230.55 470.696 230.231V229.198H467.75ZM476.054 225.486H473.949C473.171 225.486 472.788 225.065 472.788 224.236V219.95H473.694V221.609C475.097 221.392 476.232 221.162 477.112 220.933L477.406 221.736C476.334 222.004 475.097 222.246 473.694 222.451V224.045C473.694 224.453 473.86 224.657 474.204 224.657H475.875C476.13 224.657 476.309 224.581 476.411 224.453C476.538 224.275 476.615 223.803 476.666 223.012L477.521 223.28C477.431 224.326 477.266 224.963 477.036 225.193C476.832 225.384 476.5 225.486 476.054 225.486ZM473.694 228.369V230.193C473.694 230.448 473.847 230.589 474.179 230.589H475.913C476.169 230.589 476.36 230.525 476.462 230.41C476.602 230.231 476.692 229.759 476.743 228.981L477.572 229.237C477.495 230.27 477.329 230.895 477.087 231.124C476.883 231.316 476.551 231.418 476.092 231.418H473.924C473.158 231.418 472.788 231.073 472.788 230.397V225.971H473.694V227.54C474.97 227.412 476.105 227.196 477.112 226.889L477.406 227.706C476.258 228.037 475.021 228.254 473.694 228.369ZM470.658 220.818C471.423 221.851 472.023 222.744 472.444 223.509L471.691 224.045C471.551 223.764 471.398 223.484 471.232 223.203C469.867 223.42 468.235 223.573 466.347 223.675L466.092 222.91C466.257 222.859 466.398 222.769 466.513 222.667C467.303 221.851 467.967 220.933 468.477 219.912L469.344 220.18C468.758 221.315 468.12 222.208 467.405 222.859C468.477 222.795 469.612 222.693 470.811 222.54C470.543 222.132 470.25 221.698 469.944 221.264L470.658 220.818Z" fill="#0D0D0D" fill-opacity="0.9"/>
<path d="M518.311 221.505L522.411 225.833L518.311 230.161" stroke="#757575" stroke-width="0.911111" stroke-linecap="round" stroke-linejoin="round"/>
</g>
</g>
<rect x="0.5" y="0.5" width="555" height="279" rx="11.5" stroke="#0D0D0D" stroke-opacity="0.06"/>
<defs>
<filter id="filter0_ddd_8015_37160" x="-95.7744" y="-20.7682" width="672.963" height="435.646" filterUnits="userSpaceOnUse" color-interpolation-filters="sRGB">
<feFlood flood-opacity="0" result="BackgroundImageFix"/>
<feColorMatrix in="SourceAlpha" type="matrix" values="0 0 0 0 0 0 0 0 0 0 0 0 0 0 0 0 0 0 127 0" result="hardAlpha"/>
<feOffset dy="6.78049"/>
<feGaussianBlur stdDeviation="10.1707"/>
<feComposite in2="hardAlpha" operator="out"/>
<feColorMatrix type="matrix" values="0 0 0 0 0 0 0 0 0 0 0 0 0 0 0 0 0 0 0.08 0"/>
<feBlend mode="normal" in2="BackgroundImageFix" result="effect1_dropShadow_8015_37160"/>
<feColorMatrix in="SourceAlpha" type="matrix" values="0 0 0 0 0 0 0 0 0 0 0 0 0 0 0 0 0 0 127 0" result="hardAlpha"/>
<feOffset dx="-10.1707" dy="8.47561"/>
<feGaussianBlur stdDeviation="14.4085"/>
<feColorMatrix type="matrix" values="0 0 0 0 0 0 0 0 0 0 0 0 0 0 0 0 0 0 0.05 0"/>
<feBlend mode="normal" in2="effect1_dropShadow_8015_37160" result="effect2_dropShadow_8015_37160"/>
<feColorMatrix in="SourceAlpha" type="matrix" values="0 0 0 0 0 0 0 0 0 0 0 0 0 0 0 0 0 0 127 0" result="hardAlpha"/>
<feOffset dx="-42.378" dy="32.2073"/>
<feGaussianBlur stdDeviation="26.2744"/>
<feColorMatrix type="matrix" values="0 0 0 0 0 0 0 0 0 0 0 0 0 0 0 0 0 0 0.03 0"/>
<feBlend mode="normal" in2="effect2_dropShadow_8015_37160" result="effect3_dropShadow_8015_37160"/>
<feBlend mode="normal" in="SourceGraphic" in2="effect3_dropShadow_8015_37160" result="shape"/>
</filter>
<filter id="filter1_i_8015_37160" x="0" y="0.420898" width="556" height="44.2145" filterUnits="userSpaceOnUse" color-interpolation-filters="sRGB">
<feFlood flood-opacity="0" result="BackgroundImageFix"/>
<feBlend mode="normal" in="SourceGraphic" in2="BackgroundImageFix" result="shape"/>
<feColorMatrix in="SourceAlpha" type="matrix" values="0 0 0 0 0 0 0 0 0 0 0 0 0 0 0 0 0 0 127 0" result="hardAlpha"/>
<feOffset dy="0.565041"/>
<feGaussianBlur stdDeviation="0.0706301"/>
<feComposite in2="hardAlpha" operator="arithmetic" k2="-1" k3="1"/>
<feColorMatrix type="matrix" values="0 0 0 0 1 0 0 0 0 1 0 0 0 0 1 0 0 0 0.7 0"/>
<feBlend mode="normal" in2="shape" result="effect1_innerShadow_8015_37160"/>
</filter>
<filter id="filter2_d_8015_37160" x="345.089" y="146.089" width="229.822" height="147.911" filterUnits="userSpaceOnUse" color-interpolation-filters="sRGB">
<feFlood flood-opacity="0" result="BackgroundImageFix"/>
<feColorMatrix in="SourceAlpha" type="matrix" values="0 0 0 0 0 0 0 0 0 0 0 0 0 0 0 0 0 0 127 0" result="hardAlpha"/>
<feOffset dy="12"/>
<feGaussianBlur stdDeviation="16"/>
<feColorMatrix type="matrix" values="0 0 0 0 0.0509804 0 0 0 0 0.0509804 0 0 0 0 0.0509804 0 0 0 0.08 0"/>
<feBlend mode="normal" in2="BackgroundImageFix" result="effect1_dropShadow_8015_37160"/>
<feBlend mode="normal" in="SourceGraphic" in2="effect1_dropShadow_8015_37160" result="shape"/>
</filter>
<clipPath id="clip0_8015_37160">
<rect width="556" height="280" rx="12" fill="white"/>
</clipPath>
<clipPath id="clip1_8015_37160">
<rect y="0.420898" width="556" height="328.854" rx="13.561" fill="white"/>
</clipPath>
<clipPath id="clip2_8015_37160">
<path d="M0 0.420898H556V44.4941H0V0.420898Z" fill="white"/>
</clipPath>
<clipPath id="clip3_8015_37160">
<rect width="9.04065" height="9.04065" fill="white" transform="translate(464.463 29.8032)"/>
</clipPath>
<clipPath id="clip4_8015_37160">
<rect width="9.04065" height="9.04065" fill="white" transform="translate(480.284 29.8032)"/>
</clipPath>
<clipPath id="clip5_8015_37160">
<rect width="556" height="235" fill="white" transform="translate(0 44.4941)"/>
</clipPath>
<clipPath id="clip6_8015_37160">
<rect x="52" y="124" width="364" height="140" rx="4" fill="white"/>
</clipPath>
</defs>
</svg>
