<svg width="456" height="130" viewBox="0 0 456 130" fill="none" xmlns="http://www.w3.org/2000/svg">
<rect width="456" height="130" rx="8" fill="#FEF7EC"/>
<path d="M71.25 36.5877C72.9517 35.6052 75.0483 35.6052 76.75 36.5877L85.1064 41.4123C86.8081 42.3948 87.8564 44.2105 87.8564 46.1754V55.8246C87.8564 57.7895 86.8081 59.6052 85.1064 60.5877L76.75 65.4123C75.0483 66.3948 72.9517 66.3948 71.25 65.4123L62.8936 60.5877C61.1919 59.6052 60.1436 57.7895 60.1436 55.8246V46.1754C60.1436 44.2105 61.1919 42.3948 62.8936 41.4123L71.25 36.5877Z" fill="url(#paint0_linear_1268_4046)"/>
<path d="M67.1613 52.3131L69.3334 50.2444L76.4529 55.4096C77.4283 56.1172 77.4544 57.5619 76.5053 58.3043L75.2237 59.3067C74.453 59.9095 73.3704 59.9082 72.6012 59.3036L67.295 55.1324C66.401 54.4296 66.3378 53.0974 67.1613 52.3131Z" fill="url(#paint1_linear_1268_4046)"/>
<path d="M67.1613 52.3131L69.3334 50.2444L76.4529 55.4096C77.4283 56.1172 77.4544 57.5619 76.5053 58.3043L75.2237 59.3067C74.453 59.9095 73.3704 59.9082 72.6012 59.3036L67.295 55.1324C66.401 54.4296 66.3378 53.0974 67.1613 52.3131Z" fill="url(#paint2_linear_1268_4046)" fill-opacity="0.3"/>
<path d="M69.2446 45.1333L72.4823 42.5182C73.2887 41.8669 74.4415 41.871 75.2433 42.528L80.6771 46.9809C81.583 47.7232 81.5894 49.1067 80.6905 49.8574L78.3112 51.8444L69.2446 45.1333Z" fill="url(#paint3_linear_1268_4046)"/>
<path d="M69.2446 45.1333L72.4823 42.5182C73.2887 41.8669 74.4415 41.871 75.2433 42.528L80.6771 46.9809C81.583 47.7232 81.5894 49.1067 80.6905 49.8574L78.3112 51.8444L69.2446 45.1333Z" fill="url(#paint4_linear_1268_4046)" fill-opacity="0.3"/>
<path fill-rule="evenodd" clip-rule="evenodd" d="M76.0446 58.6444C76.8317 57.9962 76.7501 56.8057 75.9376 56.1897C75.7559 56.0519 75.5909 55.9301 75.4668 55.8444C72.833 53.8961 70.1538 51.7511 67.3495 49.6269C66.3644 48.8807 66.3412 47.3998 67.3134 46.637L71.1557 43.6222C71.1377 43.6364 71.1139 43.6552 71.0858 43.6775C70.6714 44.0067 70.6872 44.6387 71.1113 44.9555C74.3082 47.344 77.3988 49.7781 80.5588 52.1573C81.5532 52.9059 81.5641 54.3974 80.5685 55.1444C79.0392 56.2918 77.4909 57.4533 76.0446 58.6444Z" fill="url(#paint5_linear_1268_4046)"/>
<path fill-rule="evenodd" clip-rule="evenodd" d="M64.2928 86.1997H61.1269L61.1256 86.1977C60.8866 86.1977 60.762 86.014 60.8999 85.7624C61.0276 85.5298 62.7364 82.508 62.7364 82.508C62.8484 82.3001 62.7257 82.0745 62.4999 82.0745H61.4849C61.2585 82.0745 61.1358 81.8464 61.2502 81.6379L63.6237 77.32C63.7635 77.0672 63.8622 77 64.1461 77H65.2257C65.4609 77 65.5779 77.2541 65.4565 77.4753C65.1093 78.1084 64.0968 79.9489 64.0968 79.9489C64.031 80.068 64.1025 80.1726 64.2075 80.1726H65.4287C65.6677 80.1726 65.829 80.395 65.705 80.6207C65.4877 81.0164 65.1584 81.6174 64.8227 82.23L64.8148 82.2444L64.8124 82.2489L64.8092 82.2546C64.4439 82.9212 64.0728 83.5986 63.8318 84.0373C63.7527 84.1811 63.809 84.3231 63.9785 84.3231H64.5837C64.7577 84.3231 64.8449 84.4277 64.8215 84.5893C64.7944 84.7746 64.7577 85.0561 64.7225 85.326C64.6945 85.5405 64.6674 85.7483 64.647 85.8935C64.6217 86.0735 64.5047 86.1997 64.2928 86.1997ZM47.9041 83.3446C48.0951 83.3446 48.1571 83.4663 48.1356 83.6101L47.5329 87.831C47.5101 87.9894 47.6119 88.1022 47.7624 88.1022H49.229C49.3359 88.1022 49.4352 88.0154 49.4498 87.9095L49.6161 86.7986C49.6306 86.6927 49.7306 86.6059 49.8368 86.6059H51.01C51.1453 86.6059 51.2553 86.5108 51.2743 86.3708L51.4685 84.9885C51.4906 84.8402 51.3856 84.7034 51.2168 84.7034H50.1688C50.0076 84.7034 49.9203 84.6298 49.9431 84.4562L50.0601 83.56C50.0746 83.4542 50.1777 83.3452 50.3023 83.3452H51.7429C51.9238 83.3452 52.0269 83.2147 52.0459 83.0702L52.24 81.6867C52.2571 81.5631 52.1837 81.4414 52.0187 81.4414H50.1903C50.1062 81.4414 50.0468 81.3729 50.0582 81.2893C50.0582 81.2893 50.1461 80.6638 50.1815 80.416C50.2042 80.255 50.2669 80.1732 50.4673 80.1732H51.8922C52.0339 80.1732 52.1357 80.1308 52.1635 79.9527C52.221 79.5832 52.3241 78.9051 52.3785 78.5255C52.395 78.4133 52.3178 78.2694 52.1527 78.2694H50.6659C50.5413 78.2694 50.4888 78.2118 50.5059 78.0882C50.5194 77.9921 50.5354 77.8832 50.5534 77.7613C50.5774 77.5977 50.6049 77.4108 50.6343 77.2009C50.6507 77.0824 50.5869 77.0013 50.4547 77.0013H48.9571C48.8186 77.0013 48.7313 77.0716 48.7105 77.2136C48.6782 77.4341 48.589 78.078 48.589 78.078C48.5745 78.1839 48.4746 78.2707 48.3683 78.2707H46.9327C46.7348 78.2707 46.631 78.374 46.6076 78.54C46.5794 78.7364 46.5438 78.9928 46.5084 79.2471C46.4742 79.4935 46.4402 79.738 46.4135 79.9242C46.3958 80.0478 46.4571 80.1739 46.6304 80.1739H48.0736C48.2304 80.1739 48.2829 80.2708 48.2665 80.3874C48.2172 80.736 48.1457 81.25 48.1457 81.25C48.1312 81.3558 48.0312 81.4427 47.925 81.4427H46.2042C46.0024 81.4427 45.862 81.5308 45.8317 81.7424C45.7792 82.1138 45.7101 82.6543 45.6646 83.0181C45.6321 83.2775 45.7446 83.3458 45.9298 83.3458H47.9041V83.3446ZM59.4453 77.3213C59.038 77.3213 57.8282 77.3181 57.8282 77.3181C57.8282 77.3181 54.9418 77.3213 53.8939 77.3213C53.6725 77.3213 53.5745 77.4183 53.5498 77.5957L53.3664 78.9006C53.3373 79.1072 53.4657 79.222 53.6472 79.222H54.6711C54.7786 79.222 54.8185 79.2936 54.7913 79.4076C54.754 79.5661 54.5832 80.0535 54.348 80.3291C54.1747 80.5326 53.8945 80.672 53.3886 80.672C53.166 80.672 53.1071 80.7506 53.0818 80.9337C53.0651 81.0572 53.0396 81.2303 53.0123 81.4157C52.9686 81.7126 52.9202 82.0418 52.8953 82.2501C52.8719 82.4453 53.0003 82.5473 53.178 82.5448C53.6314 82.5372 54.1854 82.4478 54.5832 82.2862C55.1056 82.0745 55.5306 81.7335 55.855 81.2804C56.1618 80.8526 56.354 80.3589 56.4925 79.8538C56.5368 79.6916 56.5779 79.5224 56.6152 79.3449C56.6304 79.2739 56.6924 79.2226 56.7651 79.2226H57.4393C57.5348 79.2226 57.6068 79.3094 57.5891 79.4038L57.2128 82.0777C57.1882 82.2526 57.2793 82.3952 57.4823 82.3952H58.7395C58.9375 82.3952 59.0526 82.2532 59.0772 82.0777C59.0772 82.0777 59.5743 78.7498 59.7343 77.6395C59.7596 77.4645 59.6268 77.3232 59.444 77.3232L59.4453 77.3213ZM51.9302 87.4685L52.1079 86.1997L52.2856 84.9309L52.4633 83.6621C52.5126 83.3116 52.839 83.0277 53.1919 83.0277H58.3056C58.6585 83.0277 58.9052 83.3116 58.8559 83.6621L58.6781 84.9309L58.5004 86.1997L58.3227 87.4685C58.2734 87.8189 57.9471 88.1028 57.5942 88.1028H52.4804C52.1275 88.1028 51.8808 87.8189 51.9302 87.4685ZM54.1658 85.2047L54.0627 85.9398C54.0425 86.0831 54.1437 86.1997 54.2879 86.1997H56.3078C56.4596 86.1997 56.6013 86.0767 56.6221 85.9259L56.7252 85.1907C56.7455 85.0475 56.6443 84.9309 56.5001 84.9309H54.4801C54.3283 84.9309 54.1867 85.0538 54.1658 85.2047ZM58.6453 88.7366H47.0959C46.9195 88.7366 46.7962 88.5946 46.8208 88.419L47.2275 85.5215C47.2483 85.3707 47.1415 85.2471 46.9897 85.2471H45.5813C45.4529 85.2471 45.3334 85.351 45.3156 85.4784L44.7964 89.1802C44.6883 89.9515 45.2859 90.6404 46.0625 90.6404H58.3784C58.5542 90.6404 58.718 90.4978 58.7427 90.3229L58.9204 89.0541C58.945 88.8798 58.8211 88.7366 58.6453 88.7366ZM74.7244 81.283V81.2811C74.9009 81.2811 75.0248 81.4231 74.9926 81.598C74.7288 83.0227 73.9649 85.0545 72.8031 86.7967C72.6033 87.0958 72.3857 87.395 72.1511 87.6859C72.1074 87.7397 72.1093 87.8183 72.1587 87.8671C72.6437 88.3475 73.383 88.658 74.2507 88.7227C74.4582 88.7379 74.5613 88.8767 74.5347 89.0637C74.4904 89.3793 74.3589 90.328 74.3589 90.328C74.331 90.5226 74.19 90.6525 73.9522 90.6379C72.54 90.5701 71.2767 90.0441 70.5323 89.3051C70.4823 89.2557 70.4027 89.2493 70.3464 89.2918C69.4774 89.942 68.2796 90.5644 67.1558 90.6379C66.9781 90.65 66.863 90.534 66.9066 90.3489C66.9739 90.0619 67.0654 89.6598 67.143 89.319C67.1769 89.1699 67.2082 89.0326 67.2336 88.9217C67.2854 88.6967 67.4126 88.5864 67.6288 88.5566C68.2322 88.4736 68.8108 88.222 69.3699 87.7955C69.4205 87.7568 69.4363 87.6884 69.411 87.6301C69.3389 87.464 69.2738 87.2961 69.215 87.1275C68.6654 85.211 68.7135 83.2312 68.7938 82.1335C68.8064 81.9592 68.9405 81.8046 69.1505 81.8046H70.3337C70.5254 81.8046 70.6639 81.9706 70.6506 82.1455C70.5848 83.0024 70.6107 84.5798 70.9023 85.7719C70.9295 85.8828 71.0705 85.9075 71.1344 85.8137C71.6783 85.0171 72.3123 84.0196 72.6576 83.0512C72.6893 82.9612 72.6229 82.868 72.528 82.868H71.6742C71.4794 82.868 71.3542 82.6975 71.4086 82.5061L72.2396 79.4121C72.294 79.2213 72.1688 79.0502 71.974 79.0502H66.5335C66.3058 79.0502 66.1831 78.8202 66.3001 78.611L66.9401 77.4677C67.0723 77.2313 67.2861 77.147 67.5726 77.147H74.0642C74.4531 77.147 74.7042 77.4893 74.5954 77.8714L73.6746 81.283H74.7244ZM60.5142 88.3221C61.3793 88.0958 64.0507 87.3974 64.0507 87.3974C64.2531 87.3594 64.4207 87.4919 64.3916 87.6997L64.2151 88.9584C64.1917 89.1257 64.083 89.2284 63.8977 89.2778C63.1266 89.4846 61.6903 89.8605 60.7524 90.1059L60.449 90.1853C60.2498 90.2373 60.0323 90.1638 60.069 89.9027L60.2498 88.6136C60.2707 88.4615 60.3618 88.362 60.5142 88.3221ZM68.4915 79.8563H67.0564C66.8907 79.8563 66.7351 79.9818 66.6972 80.146C66.6972 80.146 64.8176 88.3525 64.3749 90.2785C64.3237 90.5022 64.435 90.641 64.6563 90.641H66.0769C66.2597 90.641 66.3862 90.5681 66.4405 90.3305C66.9288 88.2011 68.7615 80.2017 68.7615 80.2017C68.8039 80.0161 68.6793 79.8563 68.4915 79.8563ZM101.44 82.1981H92.874C92.2631 82.1981 92.0101 81.7811 92.0885 81.2227C92.1471 80.8051 92.235 80.173 92.3223 79.5453C92.4075 78.9328 92.4921 78.3243 92.5483 77.9234C92.6242 77.3853 92.9986 77 93.5906 77H102.235C102.88 77 103.1 77.4012 103.019 77.9766C102.929 78.6186 102.768 79.7671 102.647 80.6297L102.554 81.2912C102.467 81.9097 102.029 82.1981 101.44 82.1981ZM94.3381 79.2752L94.247 79.9248C94.2217 80.1048 94.3476 80.2499 94.5284 80.2499H100.262C100.443 80.2499 100.61 80.1042 100.635 79.9248L100.726 79.2752C100.752 79.0958 100.626 78.9469 100.445 78.9469H94.7118C94.531 78.9469 94.3634 79.0958 94.3381 79.2752ZM102.861 88.6231C100.675 88.6231 99.2843 88.1947 98.077 87.3505C97.8974 87.225 97.6622 87.2789 97.5572 87.4773C97.3775 87.8168 97.1677 88.1168 96.9664 88.4046C96.9006 88.4986 96.8356 88.5915 96.773 88.6839C96.6452 88.8728 96.6446 89.0642 96.8147 89.1745C98.3243 90.1574 100.638 90.6397 102.612 90.6397C102.919 90.6397 103.027 90.5263 103.061 90.2823C103.084 90.1217 103.109 89.8972 103.135 89.6747C103.161 89.4501 103.186 89.2274 103.208 89.0743C103.245 88.8145 103.167 88.6231 102.861 88.6231ZM92.4263 87.0127H91.0236C90.8433 87.0127 90.7168 86.867 90.7421 86.6876L90.9698 85.0633L91.1519 83.7641C91.2019 83.4054 91.4542 83.1145 91.8976 83.1145H102.372C102.734 83.1145 102.986 83.4054 102.935 83.7641L102.525 86.6876C102.501 86.8676 102.334 87.0127 102.153 87.0127H100.71C100.53 87.0127 100.403 86.867 100.428 86.6876L100.61 85.3884C100.635 85.2084 100.509 85.0633 100.328 85.0633H93.3547C93.1738 85.0633 93.0068 85.2091 92.9815 85.3884L92.7994 86.6876C92.7741 86.8676 92.6072 87.0127 92.4263 87.0127ZM97.2959 85.8296H95.7288C95.5479 85.8296 95.4024 85.9297 95.3221 86.1148C94.8497 87.2061 94.0547 88.6828 90.0995 88.6238C89.8959 88.6207 89.7416 88.7481 89.7131 88.9509L89.531 90.2894C89.4994 90.5137 89.6202 90.6398 89.8219 90.6398C95.2797 90.6398 97.1277 88.1213 97.5603 86.1534C97.5995 85.9741 97.4768 85.8296 97.2959 85.8296ZM89.9949 79.6123C89.1285 79.6079 88.4164 79.5743 87.7928 79.343C87.1484 79.104 86.5204 78.6255 86.0505 77.5C85.9139 77.173 85.6609 77.0006 85.3049 77.0006H82.0744C81.6343 77.0006 81.337 77.2078 81.1207 77.6362C80.5908 78.6585 79.933 79.1059 79.2197 79.3411C78.5088 79.5749 77.7189 79.6079 76.8322 79.6123C76.6507 79.6129 76.4825 79.7587 76.4572 79.9393L76.2745 81.2461C76.2492 81.4261 76.3763 81.5719 76.5578 81.5719C77.4223 81.5719 78.3178 81.5402 79.2159 81.307L79.0015 82.8331C78.9762 83.0156 79.1046 83.1639 79.288 83.1639H86.6171C86.8012 83.1639 86.9713 83.0156 86.9966 82.8331L87.2116 81.3013C88.0274 81.5396 88.8806 81.5719 89.7217 81.5719C89.9032 81.5725 90.0708 81.4261 90.0961 81.2461L90.2789 79.9393C90.3042 79.7593 90.1764 79.6136 89.9949 79.6123ZM79.6409 81.1809C80.6629 80.8374 81.6197 80.2061 82.3811 79.1351C82.4564 79.0286 82.5785 78.9602 82.7012 78.9602H84.255C84.3657 78.9602 84.4612 79.0159 84.5112 79.1059C85.117 80.1878 85.917 80.8291 86.8499 81.1809H79.6409ZM89.0469 84.2102H76.542C76.3605 84.2102 76.1916 84.3573 76.1663 84.5379L75.9835 85.8441C75.9582 86.0241 76.0854 86.1711 76.2669 86.1711H78.6011C78.6011 86.1711 77.0751 89.0452 76.5584 90.0155C76.4395 90.2398 76.5502 90.4806 76.7918 90.4806H87.863C88.1021 90.4806 88.2956 90.236 88.2279 90.0199L87.4703 87.5996C87.3969 87.3657 87.2888 87.2149 86.996 87.2149H85.5034C85.2644 87.2149 85.1233 87.4595 85.191 87.6756C85.2422 87.8404 85.3763 88.2562 85.3763 88.2562C85.4048 88.3481 85.3403 88.4539 85.2448 88.4539H80.0861C79.9767 88.4539 79.9387 88.3335 79.9937 88.2384L81.0227 86.1711H88.7724C88.9539 86.1711 89.1222 86.0247 89.1475 85.8441L89.3302 84.5379C89.3555 84.3579 89.2284 84.2109 89.0469 84.2102Z" fill="#80522C"/>
<rect x="131.216" y="48" width="1" height="34" rx="0.5" fill="#888888" fill-opacity="0.2"/>
<path d="M169.184 59V56.144H173V44.912H169.784V42.728C171.56 42.392 172.784 41.936 173.912 41.24H176.528V56.144H179.864V59H169.184ZM188.069 49.904C189.029 49.904 190.133 49.376 190.997 48.008C190.685 44.768 189.461 43.568 187.949 43.568C186.629 43.568 185.549 44.648 185.549 46.832C185.549 48.92 186.533 49.904 188.069 49.904ZM182.597 57.32L184.445 55.208C185.093 55.904 186.197 56.456 187.253 56.456C189.245 56.456 190.901 54.944 191.045 50.48C190.133 51.68 188.621 52.424 187.397 52.424C184.445 52.424 182.309 50.6 182.309 46.832C182.309 43.184 184.853 40.904 187.901 40.904C191.261 40.904 194.285 43.544 194.285 49.712C194.285 56.432 190.997 59.336 187.469 59.336C185.261 59.336 183.653 58.4 182.597 57.32Z" fill="#76401D"/>
<path d="M202.53 60.092V51.524H203.874V60.092H202.53ZM203.258 47.24L204.42 47.786C204.294 48.01 204.168 48.234 204.014 48.444C205.946 50.544 207.892 51.72 209.782 52.574C209.432 52.868 209.026 53.372 208.83 53.792C207.01 52.868 205.246 51.65 203.244 49.48C201.732 51.314 199.744 52.798 197.672 53.764C197.448 53.386 197.07 52.882 196.706 52.532C199.338 51.468 201.858 49.592 203.258 47.24Z" fill="#76401D"/>
<path d="M162.568 80.574L163.464 80.924C162.988 82.604 162.358 83.892 161.574 84.774L160.832 84.116C161.602 83.234 162.176 82.058 162.568 80.574ZM165.424 75.604H166.46V78.138C166.46 78.208 166.446 78.278 166.446 78.348H170.926C170.898 79.272 170.884 80.14 170.856 80.938L171.738 80.504C172.424 81.792 173.068 83.192 173.684 84.718L172.76 85.166C172.158 83.598 171.528 82.198 170.856 80.966C170.8 82.24 170.744 83.332 170.66 84.256C170.52 85.74 170.296 86.776 169.988 87.378C169.68 87.938 169.176 88.246 168.476 88.302H166.894L166.614 87.322C167.09 87.35 167.552 87.364 167.972 87.364C168.7 87.364 169.19 86.874 169.442 85.894C169.666 84.858 169.82 82.674 169.904 79.328H166.404C166.278 81.554 165.9 83.374 165.256 84.788C164.528 86.328 163.324 87.518 161.658 88.386L161.112 87.504C162.722 86.636 163.842 85.474 164.486 84.018C164.976 82.758 165.27 81.19 165.382 79.328H161.924V78.348H165.424V75.604ZM178.822 75.702L179.746 76.066C178.71 79.006 177.352 81.246 175.644 82.786L174.86 82.1C176.61 80.504 177.926 78.376 178.822 75.702ZM183.596 83.122C184.688 84.634 185.612 86.258 186.396 87.98L185.458 88.4C185.248 87.924 185.038 87.476 184.828 87.056C182.364 87.448 179.606 87.728 176.554 87.924L176.372 86.944C177.492 86.356 178.892 84.144 180.586 80.308L181.566 80.644C180.362 83.304 179.158 85.39 177.954 86.902C180.236 86.762 182.378 86.524 184.38 86.202C183.834 85.194 183.274 84.27 182.686 83.43L183.596 83.122ZM183.386 75.604C184.198 78.208 185.598 80.336 187.6 81.988L186.886 82.814C184.8 81.078 183.344 78.824 182.532 76.08L183.386 75.604ZM197.834 79.16C197.148 78.684 196.602 78.18 196.182 77.648H194.6C194.124 78.208 193.564 78.712 192.92 79.16H197.834ZM197.274 77.648C198.226 78.572 199.668 79.3 201.6 79.832L201.152 80.77C200.13 80.406 199.248 80.014 198.506 79.58V80H192.71V80.854H199.206V81.666H192.71V82.506H199.206V83.318H192.71V84.2H201.222V85.11H193.928C193.368 86.034 192.836 86.748 192.332 87.252C194.432 87.14 196.462 86.93 198.394 86.622C198.128 86.23 197.862 85.866 197.582 85.53L198.45 85.236C199.192 86.104 199.836 87.028 200.382 88.022L199.472 88.428C199.29 88.078 199.108 87.756 198.926 87.448C196.336 87.826 193.62 88.064 190.792 88.176L190.54 87.336C191.226 87.28 191.968 86.538 192.752 85.11H189.182V84.2H191.73V79.874C191.002 80.238 190.218 80.56 189.364 80.826L188.888 79.972C190.834 79.384 192.318 78.6 193.34 77.648H189.378V76.724H194.152C194.418 76.36 194.628 75.968 194.796 75.562L195.776 75.674C195.636 76.038 195.454 76.388 195.258 76.724H201.04V77.648H197.274ZM206.15 75.548H207.018V76.094H208.95V76.836H207.018V77.578H208.838V78.152C207.648 79.692 205.814 80.742 203.35 81.302L202.916 80.56C203.826 80.378 204.638 80.126 205.352 79.818C204.988 79.51 204.568 79.188 204.092 78.88C203.84 79.104 203.574 79.3 203.294 79.482L202.776 78.824C203.7 78.25 204.33 77.55 204.666 76.738L205.548 76.836C205.45 77.088 205.338 77.34 205.198 77.578H206.15V75.548ZM204.722 78.25C204.666 78.306 204.624 78.362 204.568 78.418C205.142 78.768 205.646 79.118 206.08 79.454C206.696 79.104 207.242 78.698 207.69 78.25H204.722ZM210.112 77.116C210.84 77.424 211.54 77.774 212.212 78.138C212.772 77.746 213.22 77.312 213.542 76.836H209.706V76.038H214.62V76.696C214.27 77.424 213.738 78.054 213.038 78.6C213.85 79.076 214.634 79.58 215.376 80.126L214.872 80.896C214.018 80.21 213.164 79.608 212.31 79.09C211.792 79.398 211.218 79.664 210.588 79.888L210.056 79.174C210.56 78.992 211.022 78.796 211.442 78.586C210.854 78.264 210.28 77.984 209.706 77.732L210.112 77.116ZM206.29 84.256V85.082H212.016V84.256H206.29ZM212.016 83.654V82.87H206.29V83.654H212.016ZM213.738 85.026L214.536 85.432C214.074 86.006 213.57 86.524 213.038 86.986C213.71 87.21 214.368 87.462 215.012 87.728L214.522 88.47C212.702 87.63 210.84 86.972 208.936 86.496L209.328 85.908C210.322 86.146 211.274 86.412 212.198 86.706C212.786 86.174 213.29 85.614 213.738 85.026ZM209.328 81.176C209.51 81.484 209.678 81.834 209.846 82.226H212.674C211.134 81.582 209.986 80.896 209.216 80.168C208.376 80.924 207.312 81.61 206.024 82.226H208.936C208.768 81.89 208.6 81.596 208.404 81.344L209.328 81.176ZM212.968 82.352V85.726H206.29V87.49C207.326 87.364 208.32 87.21 209.272 87.028L209.44 87.812C208.292 88.022 206.85 88.218 205.142 88.4L204.876 87.616C205.156 87.56 205.296 87.42 205.296 87.196V82.548C204.694 82.8 204.078 83.038 203.434 83.262L202.902 82.45C205.464 81.792 207.452 80.784 208.852 79.44H209.58C210.868 80.672 212.884 81.624 215.6 82.296L215.068 83.108C214.284 82.856 213.584 82.604 212.968 82.352Z" fill="#92582D"/>
<path d="M260.248 59V56.96C265.072 52.64 267.928 49.304 267.928 46.568C267.928 44.768 266.944 43.688 265.264 43.688C263.968 43.688 262.888 44.528 262 45.512L260.08 43.592C261.712 41.864 263.296 40.904 265.72 40.904C269.08 40.904 271.312 43.064 271.312 46.376C271.312 49.592 268.648 53.048 265.408 56.216C266.296 56.12 267.472 56.024 268.288 56.024H272.152V59H260.248ZM280.429 59.336C276.805 59.336 274.405 56.168 274.405 50.048C274.405 43.904 276.805 40.904 280.429 40.904C284.029 40.904 286.429 43.928 286.429 50.048C286.429 56.168 284.029 59.336 280.429 59.336ZM280.429 56.576C281.941 56.576 283.093 55.04 283.093 50.048C283.093 45.08 281.941 43.64 280.429 43.64C278.893 43.64 277.741 45.08 277.741 50.048C277.741 55.04 278.893 56.576 280.429 56.576ZM294.562 59.336C290.938 59.336 288.538 56.168 288.538 50.048C288.538 43.904 290.938 40.904 294.562 40.904C298.162 40.904 300.562 43.928 300.562 50.048C300.562 56.168 298.162 59.336 294.562 59.336ZM294.562 56.576C296.074 56.576 297.226 55.04 297.226 50.048C297.226 45.08 296.074 43.64 294.562 43.64C293.026 43.64 291.874 45.08 291.874 50.048C291.874 55.04 293.026 56.576 294.562 56.576Z" fill="#76401D"/>
<path d="M307.036 59.74V55.42H302.976V53.74H307.036V49.42H308.796V53.74H312.856V55.42H308.796V59.74H307.036Z" fill="#76401D"/>
<path d="M264.352 75.562H265.08C266.858 77.55 268.902 79.118 271.212 80.266L270.666 81.232C268.342 80.014 266.368 78.418 264.716 76.458C263.204 78.306 261.202 79.902 258.71 81.246L258.178 80.28C260.642 79.02 262.7 77.452 264.352 75.562ZM261.3 79.86H268.174V80.812H261.3V79.86ZM259.102 82.674H270.358V83.654H263.764C263.092 84.97 262.28 86.118 261.328 87.112C263.61 86.972 265.78 86.776 267.852 86.496C267.376 85.88 266.858 85.236 266.284 84.592L267.068 84.088C268.342 85.516 269.322 86.748 270.008 87.798L269.168 88.386C268.93 88.008 268.678 87.63 268.398 87.238C266.214 87.588 263.456 87.868 260.11 88.064L259.83 87.182C260.082 87.112 260.25 87.028 260.362 86.916C261.258 85.88 262.014 84.802 262.616 83.654H259.102V82.674ZM283.434 80.644V85.866H282.44V81.568H275.006V86.034H274.012V80.644H283.434ZM274.852 76.08H282.594V79.594H274.852V76.08ZM281.614 78.712V76.976H275.832V78.712H281.614ZM278.338 82.478L279.36 82.562C279.164 84.62 278.73 86.006 278.058 86.734C277.33 87.602 275.664 88.162 273.06 88.4L272.668 87.49C274.936 87.35 276.448 86.902 277.19 86.132C277.834 85.418 278.226 84.2 278.338 82.478ZM279.724 85.726C281.544 86.244 283.21 86.874 284.722 87.602L284.176 88.442C282.566 87.602 280.914 86.958 279.22 86.482L279.724 85.726ZM289.734 81.106V88.344H288.726V81.078C288.222 82.562 287.536 83.892 286.682 85.082L286.234 83.948C287.382 82.576 288.208 81.022 288.698 79.272H286.528V78.306H288.726V75.576H289.734V78.306H291.582V79.272H289.734V80.07C290.434 80.742 291.148 81.512 291.862 82.352L291.288 83.206C290.686 82.338 290.168 81.638 289.734 81.106ZM297.238 77.382H293.458C293.626 79.538 294.214 81.47 295.236 83.178C296.244 81.498 296.902 79.566 297.238 77.382ZM294.648 84.074C293.402 82.058 292.674 79.832 292.478 77.382H291.918V76.416H298.218V77.368C297.812 79.986 297.014 82.24 295.838 84.116C296.734 85.376 297.854 86.524 299.226 87.546L298.54 88.358C297.224 87.322 296.118 86.188 295.25 84.97C294.27 86.3 293.066 87.42 291.652 88.344L291.008 87.532C292.478 86.552 293.696 85.404 294.648 84.074ZM311.182 82.478V86.972H312.918V87.938H300.528V86.972H302.362V82.478H311.182ZM303.328 86.972H304.98V83.43H303.328V86.972ZM305.904 86.972H307.612V83.43H305.904V86.972ZM308.536 86.972H310.202V83.43H308.536V86.972ZM300.822 78.026H304.378C303.93 77.41 303.356 76.752 302.656 76.038L303.482 75.52C304.252 76.304 304.84 76.976 305.246 77.55L304.588 78.026H308.158C308.732 77.242 309.222 76.416 309.642 75.52L310.622 75.856C310.216 76.668 309.768 77.396 309.264 78.026H312.624V79.006H300.822V78.026ZM308.676 79.524C310.272 80.252 311.714 81.134 313.016 82.17L312.456 83.052C311.056 81.89 309.614 80.966 308.158 80.294L308.676 79.524ZM304.728 79.44L305.372 80.168C304.168 81.316 302.642 82.282 300.822 83.038L300.388 82.1C302.152 81.428 303.594 80.546 304.728 79.44Z" fill="#92582D"/>
<path d="M363.792 59.336C360.984 59.336 359.088 58.28 357.84 56.864L359.496 54.632C360.552 55.664 361.848 56.456 363.456 56.456C365.256 56.456 366.48 55.568 366.48 53.984C366.48 52.232 365.448 51.152 361.584 51.152V48.608C364.848 48.608 365.904 47.48 365.904 45.896C365.904 44.504 365.04 43.688 363.528 43.664C362.256 43.688 361.224 44.288 360.168 45.248L358.368 43.088C359.904 41.744 361.608 40.904 363.696 40.904C367.128 40.904 369.456 42.584 369.456 45.632C369.456 47.552 368.376 48.944 366.48 49.688V49.808C368.496 50.36 370.032 51.848 370.032 54.176C370.032 57.44 367.176 59.336 363.792 59.336ZM378.861 56.672C380.181 56.672 381.261 55.568 381.261 53.408C381.261 51.296 380.277 50.312 378.741 50.312C377.781 50.312 376.725 50.816 375.837 52.184C376.173 55.424 377.373 56.672 378.861 56.672ZM384.237 42.92L382.365 45.032C381.741 44.312 380.661 43.736 379.629 43.736C377.589 43.736 375.909 45.272 375.765 49.712C376.725 48.536 378.261 47.816 379.413 47.816C382.389 47.816 384.501 49.592 384.501 53.408C384.501 57.056 381.957 59.336 378.933 59.336C375.549 59.336 372.549 56.624 372.549 50.36C372.549 43.736 375.837 40.904 379.413 40.904C381.573 40.904 383.157 41.816 384.237 42.92ZM392.106 59.336C389.298 59.336 387.426 58.232 386.106 56.912L387.738 54.656C388.746 55.64 389.994 56.456 391.65 56.456C393.498 56.456 394.794 55.28 394.794 53.192C394.794 51.128 393.594 49.976 391.794 49.976C390.738 49.976 390.162 50.24 389.13 50.912L387.522 49.856L388.002 41.24H397.506V44.192H391.05L390.714 47.96C391.41 47.624 392.034 47.456 392.85 47.456C395.826 47.456 398.322 49.232 398.322 53.096C398.322 57.056 395.394 59.336 392.106 59.336Z" fill="#76401D"/>
<path d="M405.774 59.182C403.016 59.182 401.014 57.25 401.014 53.876C401.014 50.516 403.086 48.5 405.816 48.5C407.272 48.5 408.252 49.144 408.882 49.802L408 50.838C407.496 50.32 406.866 49.914 405.872 49.914C403.954 49.914 402.68 51.398 402.68 53.82C402.68 56.27 403.814 57.768 405.942 57.768C406.572 57.768 407.202 57.586 407.566 57.264V54.842H405.522V53.512H409.036V57.978C408.35 58.664 407.188 59.182 405.774 59.182Z" fill="#76401D"/>
<path d="M357.302 76.374H367.27V77.354H357.302V76.374ZM355.958 80.28H368.516V81.288H361.796C360.508 83.934 359.374 85.768 358.422 86.804C360.942 86.664 363.448 86.426 365.954 86.09C365.45 85.194 364.89 84.27 364.274 83.318L365.086 82.814C366.374 84.746 367.368 86.44 368.068 87.868L367.172 88.498C366.948 88.008 366.71 87.518 366.444 87.014C363.602 87.378 360.508 87.658 357.148 87.882L356.882 86.86C356.994 86.832 357.064 86.79 357.12 86.762C358.016 86.09 359.206 84.27 360.676 81.288H355.958V80.28ZM370.35 79.622H372.492V76.444H375.166C375.376 76.108 375.53 75.758 375.642 75.408L376.65 75.548C376.538 75.87 376.384 76.164 376.202 76.444H380.346V79.622H382.18V80.56H380.346V82.268C380.346 82.996 379.94 83.36 379.142 83.36H378.064L377.826 82.45C378.19 82.478 378.54 82.492 378.848 82.492C379.184 82.492 379.366 82.296 379.366 81.918V80.56H373.388C373.192 81.778 372.604 82.786 371.638 83.57L370.868 82.884C371.708 82.24 372.212 81.456 372.408 80.56H370.35V79.622ZM379.366 79.622V77.354H373.458V79.622H379.366ZM375.53 77.564C376.314 77.97 376.986 78.418 377.56 78.922L376.986 79.594C376.468 79.09 375.81 78.614 375.012 78.166L375.53 77.564ZM375.082 80.84C375.978 81.316 376.734 81.834 377.378 82.422L376.776 83.136C376.188 82.548 375.446 81.988 374.55 81.484L375.082 80.84ZM381.004 83.948V87.112H382.544V88.022H369.958V87.112H371.428V83.948H381.004ZM372.394 87.112H374.27V84.858H372.394V87.112ZM375.236 87.112H377.154V84.858H375.236V87.112ZM378.12 87.112H380.038V84.858H378.12V87.112ZM385.428 82.702H395.018V83.654H390.72V86.972H396.194V87.938H384.252V86.972H389.698V83.654H385.428V82.702ZM391.518 78.768C392.988 79.44 394.332 80.266 395.536 81.232L394.962 82.086C393.674 81.022 392.344 80.182 390.986 79.566L391.518 78.768ZM388.592 78.866L389.222 79.594C388.13 80.574 386.772 81.4 385.148 82.058L384.714 81.134C386.282 80.56 387.57 79.804 388.592 78.866ZM390.272 75.478C390.454 75.912 390.636 76.402 390.804 76.948H396.166V79.762H395.144V77.886H385.302V79.748H384.28V76.948H389.768C389.586 76.472 389.39 76.038 389.18 75.646L390.272 75.478ZM401.5 79.356H406.82V85.88H401.5V79.356ZM405.882 84.984V83.066H402.452V84.984H405.882ZM402.452 82.17H405.882V80.252H402.452V82.17ZM408.388 88.288H407.212L406.96 87.35L408.178 87.378C408.598 87.378 408.822 87.084 408.822 86.524V77.2H403.39V76.262H409.802V86.804C409.802 87.784 409.326 88.288 408.388 88.288ZM398.602 77.886H399.582V88.414H398.602V77.886ZM400.632 75.436C401.276 76.206 401.85 77.046 402.34 77.97L401.444 78.446C400.912 77.466 400.338 76.598 399.708 75.842L400.632 75.436Z" fill="#92582D"/>
<defs>
<linearGradient id="paint0_linear_1268_4046" x1="66.4229" y1="62.4473" x2="83.7753" y2="41.3649" gradientUnits="userSpaceOnUse">
<stop/>
<stop offset="1" stop-color="#291D05"/>
</linearGradient>
<linearGradient id="paint1_linear_1268_4046" x1="71.9956" y1="53.176" x2="69.6062" y2="56.0017" gradientUnits="userSpaceOnUse">
<stop stop-color="#A85D01"/>
<stop offset="1" stop-color="#EE8C13"/>
</linearGradient>
<linearGradient id="paint2_linear_1268_4046" x1="72.0001" y1="60.3333" x2="72.0001" y2="50.2444" gradientUnits="userSpaceOnUse">
<stop stop-color="#663801" stop-opacity="0"/>
<stop offset="1" stop-color="#663801"/>
</linearGradient>
<linearGradient id="paint3_linear_1268_4046" x1="75.4832" y1="48.8721" x2="78.3411" y2="45.3873" gradientUnits="userSpaceOnUse">
<stop stop-color="#9F5903"/>
<stop offset="1" stop-color="#FBA233"/>
</linearGradient>
<linearGradient id="paint4_linear_1268_4046" x1="77.689" y1="44.0222" x2="72.4001" y2="49.6222" gradientUnits="userSpaceOnUse">
<stop stop-color="#663902" stop-opacity="0"/>
<stop offset="1" stop-color="#663902"/>
</linearGradient>
<linearGradient id="paint5_linear_1268_4046" x1="67.9234" y1="47.0847" x2="77.6834" y2="55.856" gradientUnits="userSpaceOnUse">
<stop stop-color="#FFC04B"/>
<stop offset="0.448296" stop-color="#FFB858"/>
<stop offset="1" stop-color="#FFAD44"/>
</linearGradient>
</defs>
</svg>
